<svg id="visual" viewBox="0 0 900 100" width="900" height="100" xmlns="http://www.w3.org/2000/svg" xmlns:xlink="http://www.w3.org/1999/xlink" version="1.1"><path d="M0 74L21.5 73.7C43 73.3 86 72.7 128.8 70.2C171.7 67.7 214.3 63.3 257.2 61C300 58.7 343 58.3 385.8 58.3C428.7 58.3 471.3 58.7 514.2 61.3C557 64 600 69 642.8 70.2C685.7 71.3 728.3 68.7 771.2 66C814 63.3 857 60.7 878.5 59.3L900 58L900 101L878.5 101C857 101 814 101 771.2 101C728.3 101 685.7 101 642.8 101C600 101 557 101 514.2 101C471.3 101 428.7 101 385.8 101C343 101 300 101 257.2 101C214.3 101 171.7 101 128.8 101C86 101 43 101 21.5 101L0 101Z" fill="#1fbfb8"></path><path d="M0 76L21.5 74.5C43 73 86 70 128.8 69.2C171.7 68.3 214.3 69.7 257.2 70.3C300 71 343 71 385.8 72C428.7 73 471.3 75 514.2 75.3C557 75.7 600 74.3 642.8 72.5C685.7 70.7 728.3 68.3 771.2 69.3C814 70.3 857 74.7 878.5 76.8L900 79L900 101L878.5 101C857 101 814 101 771.2 101C728.3 101 685.7 101 642.8 101C600 101 557 101 514.2 101C471.3 101 428.7 101 385.8 101C343 101 300 101 257.2 101C214.3 101 171.7 101 128.8 101C86 101 43 101 21.5 101L0 101Z" fill="#19aba4"></path><path d="M0 83L21.5 82.8C43 82.7 86 82.3 128.8 82.2C171.7 82 214.3 82 257.2 82.3C300 82.7 343 83.3 385.8 82.5C428.7 81.7 471.3 79.3 514.2 77.5C557 75.7 600 74.3 642.8 75.5C685.7 76.7 728.3 80.3 771.2 82.2C814 84 857 84 878.5 84L900 84L900 101L878.5 101C857 101 814 101 771.2 101C728.3 101 685.7 101 642.8 101C600 101 557 101 514.2 101C471.3 101 428.7 101 385.8 101C343 101 300 101 257.2 101C214.3 101 171.7 101 128.8 101C86 101 43 101 21.5 101L0 101Z" fill="#129791"></path><path d="M0 88L21.5 87.5C43 87 86 86 128.8 85.7C171.7 85.3 214.3 85.7 257.2 86.2C300 86.7 343 87.3 385.8 87.8C428.7 88.3 471.3 88.7 514.2 87.3C557 86 600 83 642.8 81.3C685.7 79.7 728.3 79.3 771.2 79.8C814 80.3 857 81.7 878.5 82.3L900 83L900 101L878.5 101C857 101 814 101 771.2 101C728.3 101 685.7 101 642.8 101C600 101 557 101 514.2 101C471.3 101 428.7 101 385.8 101C343 101 300 101 257.2 101C214.3 101 171.7 101 128.8 101C86 101 43 101 21.5 101L0 101Z" fill="#0b847e"></path><path d="M0 94L21.5 93.8C43 93.7 86 93.3 128.8 92.2C171.7 91 214.3 89 257.2 88.2C300 87.3 343 87.7 385.8 88C428.7 88.3 471.3 88.7 514.2 89.3C557 90 600 91 642.8 91.8C685.7 92.7 728.3 93.3 771.2 93C814 92.7 857 91.3 878.5 90.7L900 90L900 101L878.5 101C857 101 814 101 771.2 101C728.3 101 685.7 101 642.8 101C600 101 557 101 514.2 101C471.3 101 428.7 101 385.8 101C343 101 300 101 257.2 101C214.3 101 171.7 101 128.8 101C86 101 43 101 21.5 101L0 101Z" fill="#05716c"></path></svg>