<svg id="visual" viewBox="0 0 900 80" width="900" height="80" xmlns="http://www.w3.org/2000/svg" xmlns:xlink="http://www.w3.org/1999/xlink" version="1.1"><path d="M0 32L21.5 31.3C43 30.7 86 29.3 128.8 27.5C171.7 25.7 214.3 23.3 257.2 24C300 24.7 343 28.3 385.8 29.5C428.7 30.7 471.3 29.3 514.2 28C557 26.7 600 25.3 642.8 24C685.7 22.7 728.3 21.3 771.2 20.7C814 20 857 20 878.5 20L900 20L900 0L878.5 0C857 0 814 0 771.2 0C728.3 0 685.7 0 642.8 0C600 0 557 0 514.2 0C471.3 0 428.7 0 385.8 0C343 0 300 0 257.2 0C214.3 0 171.7 0 128.8 0C86 0 43 0 21.5 0L0 0Z" fill="#8a307f"></path><path d="M0 18L21.5 18.2C43 18.3 86 18.7 128.8 19.7C171.7 20.7 214.3 22.3 257.2 21.7C300 21 343 18 385.8 17.2C428.7 16.3 471.3 17.7 514.2 18.5C557 19.3 600 19.7 642.8 20.7C685.7 21.7 728.3 23.3 771.2 24.2C814 25 857 25 878.5 25L900 25L900 0L878.5 0C857 0 814 0 771.2 0C728.3 0 685.7 0 642.8 0C600 0 557 0 514.2 0C471.3 0 428.7 0 385.8 0C343 0 300 0 257.2 0C214.3 0 171.7 0 128.8 0C86 0 43 0 21.5 0L0 0Z" fill="#8155a0"></path><path d="M0 16L21.5 15.3C43 14.7 86 13.3 128.8 14C171.7 14.7 214.3 17.3 257.2 18C300 18.7 343 17.3 385.8 16.2C428.7 15 471.3 14 514.2 14.7C557 15.3 600 17.7 642.8 17.3C685.7 17 728.3 14 771.2 12.5C814 11 857 11 878.5 11L900 11L900 0L878.5 0C857 0 814 0 771.2 0C728.3 0 685.7 0 642.8 0C600 0 557 0 514.2 0C471.3 0 428.7 0 385.8 0C343 0 300 0 257.2 0C214.3 0 171.7 0 128.8 0C86 0 43 0 21.5 0L0 0Z" fill="#7773b9"></path><path d="M0 9L21.5 9.8C43 10.7 86 12.3 128.8 12.8C171.7 13.3 214.3 12.7 257.2 11.8C300 11 343 10 385.8 9.8C428.7 9.7 471.3 10.3 514.2 10.8C557 11.3 600 11.7 642.8 11.3C685.7 11 728.3 10 771.2 9.2C814 8.3 857 7.7 878.5 7.3L900 7L900 0L878.5 0C857 0 814 0 771.2 0C728.3 0 685.7 0 642.8 0C600 0 557 0 514.2 0C471.3 0 428.7 0 385.8 0C343 0 300 0 257.2 0C214.3 0 171.7 0 128.8 0C86 0 43 0 21.5 0L0 0Z" fill="#728ec9"></path><path d="M0 4L21.5 4C43 4 86 4 128.8 4.8C171.7 5.7 214.3 7.3 257.2 7.7C300 8 343 7 385.8 6.8C428.7 6.7 471.3 7.3 514.2 7.5C557 7.7 600 7.3 642.8 7.3C685.7 7.3 728.3 7.7 771.2 7.5C814 7.3 857 6.7 878.5 6.3L900 6L900 0L878.5 0C857 0 814 0 771.2 0C728.3 0 685.7 0 642.8 0C600 0 557 0 514.2 0C471.3 0 428.7 0 385.8 0C343 0 300 0 257.2 0C214.3 0 171.7 0 128.8 0C86 0 43 0 21.5 0L0 0Z" fill="#79a7d3"></path></svg>