<svg id="visual" viewBox="0 0 900 100" width="900" height="100" xmlns="http://www.w3.org/2000/svg" xmlns:xlink="http://www.w3.org/1999/xlink" version="1.1"><path d="M0 24L21.5 24.3C43 24.7 86 25.3 128.8 27.8C171.7 30.3 214.3 34.7 257.2 37C300 39.3 343 39.7 385.8 39.7C428.7 39.7 471.3 39.3 514.2 36.7C557 34 600 29 642.8 27.8C685.7 26.7 728.3 29.3 771.2 32C814 34.7 857 37.3 878.5 38.7L900 40L900 0L878.5 0C857 0 814 0 771.2 0C728.3 0 685.7 0 642.8 0C600 0 557 0 514.2 0C471.3 0 428.7 0 385.8 0C343 0 300 0 257.2 0C214.3 0 171.7 0 128.8 0C86 0 43 0 21.5 0L0 0Z" fill="#1fbfb8"></path><path d="M0 22L21.5 23.5C43 25 86 28 128.8 28.8C171.7 29.7 214.3 28.3 257.2 27.7C300 27 343 27 385.8 26C428.7 25 471.3 23 514.2 22.7C557 22.3 600 23.7 642.8 25.5C685.7 27.3 728.3 29.7 771.2 28.7C814 27.7 857 23.3 878.5 21.2L900 19L900 0L878.5 0C857 0 814 0 771.2 0C728.3 0 685.7 0 642.8 0C600 0 557 0 514.2 0C471.3 0 428.7 0 385.8 0C343 0 300 0 257.2 0C214.3 0 171.7 0 128.8 0C86 0 43 0 21.5 0L0 0Z" fill="#19aba4"></path><path d="M0 15L21.5 15.2C43 15.3 86 15.7 128.8 15.8C171.7 16 214.3 16 257.2 15.7C300 15.3 343 14.7 385.8 15.5C428.7 16.3 471.3 18.7 514.2 20.5C557 22.3 600 23.7 642.8 22.5C685.7 21.3 728.3 17.7 771.2 15.8C814 14 857 14 878.5 14L900 14L900 0L878.5 0C857 0 814 0 771.2 0C728.3 0 685.7 0 642.8 0C600 0 557 0 514.2 0C471.3 0 428.7 0 385.8 0C343 0 300 0 257.2 0C214.3 0 171.7 0 128.8 0C86 0 43 0 21.5 0L0 0Z" fill="#129791"></path><path d="M0 10L21.5 10.5C43 11 86 12 128.8 12.3C171.7 12.7 214.3 12.3 257.2 11.8C300 11.3 343 10.7 385.8 10.2C428.7 9.7 471.3 9.3 514.2 10.7C557 12 600 15 642.8 16.7C685.7 18.3 728.3 18.7 771.2 18.2C814 17.7 857 16.3 878.5 15.7L900 15L900 0L878.5 0C857 0 814 0 771.2 0C728.3 0 685.7 0 642.8 0C600 0 557 0 514.2 0C471.3 0 428.7 0 385.8 0C343 0 300 0 257.2 0C214.3 0 171.7 0 128.8 0C86 0 43 0 21.5 0L0 0Z" fill="#0b847e"></path><path d="M0 4L21.5 4.2C43 4.3 86 4.7 128.8 5.8C171.7 7 214.3 9 257.2 9.8C300 10.7 343 10.3 385.8 10C428.7 9.7 471.3 9.3 514.2 8.7C557 8 600 7 642.8 6.2C685.7 5.3 728.3 4.7 771.2 5C814 5.3 857 6.7 878.5 7.3L900 8L900 0L878.5 0C857 0 814 0 771.2 0C728.3 0 685.7 0 642.8 0C600 0 557 0 514.2 0C471.3 0 428.7 0 385.8 0C343 0 300 0 257.2 0C214.3 0 171.7 0 128.8 0C86 0 43 0 21.5 0L0 0Z" fill="#05716c"></path></svg>