<svg id="visual" viewBox="0 0 900 80" width="900" height="80" xmlns="http://www.w3.org/2000/svg" xmlns:xlink="http://www.w3.org/1999/xlink" version="1.1"><path d="M0 46L21.5 46.7C43 47.3 86 48.7 128.8 50.5C171.7 52.3 214.3 54.7 257.2 54C300 53.3 343 49.7 385.8 48.5C428.7 47.3 471.3 48.7 514.2 50C557 51.3 600 52.7 642.8 54C685.7 55.3 728.3 56.7 771.2 57.3C814 58 857 58 878.5 58L900 58L900 81L878.5 81C857 81 814 81 771.2 81C728.3 81 685.7 81 642.8 81C600 81 557 81 514.2 81C471.3 81 428.7 81 385.8 81C343 81 300 81 257.2 81C214.3 81 171.7 81 128.8 81C86 81 43 81 21.5 81L0 81Z" fill="#8a307f"></path><path d="M0 60L21.5 59.8C43 59.7 86 59.3 128.8 58.3C171.7 57.3 214.3 55.7 257.2 56.3C300 57 343 60 385.8 60.8C428.7 61.7 471.3 60.3 514.2 59.5C557 58.7 600 58.3 642.8 57.3C685.7 56.3 728.3 54.7 771.2 53.8C814 53 857 53 878.5 53L900 53L900 81L878.5 81C857 81 814 81 771.2 81C728.3 81 685.7 81 642.8 81C600 81 557 81 514.2 81C471.3 81 428.7 81 385.8 81C343 81 300 81 257.2 81C214.3 81 171.7 81 128.8 81C86 81 43 81 21.5 81L0 81Z" fill="#8155a0"></path><path d="M0 62L21.5 62.7C43 63.3 86 64.7 128.8 64C171.7 63.3 214.3 60.7 257.2 60C300 59.3 343 60.7 385.8 61.8C428.7 63 471.3 64 514.2 63.3C557 62.7 600 60.3 642.8 60.7C685.7 61 728.3 64 771.2 65.5C814 67 857 67 878.5 67L900 67L900 81L878.5 81C857 81 814 81 771.2 81C728.3 81 685.7 81 642.8 81C600 81 557 81 514.2 81C471.3 81 428.7 81 385.8 81C343 81 300 81 257.2 81C214.3 81 171.7 81 128.8 81C86 81 43 81 21.5 81L0 81Z" fill="#7773b9"></path><path d="M0 69L21.5 68.2C43 67.3 86 65.7 128.8 65.2C171.7 64.7 214.3 65.3 257.2 66.2C300 67 343 68 385.8 68.2C428.7 68.3 471.3 67.7 514.2 67.2C557 66.7 600 66.3 642.8 66.7C685.7 67 728.3 68 771.2 68.8C814 69.7 857 70.3 878.5 70.7L900 71L900 81L878.5 81C857 81 814 81 771.2 81C728.3 81 685.7 81 642.8 81C600 81 557 81 514.2 81C471.3 81 428.7 81 385.8 81C343 81 300 81 257.2 81C214.3 81 171.7 81 128.8 81C86 81 43 81 21.5 81L0 81Z" fill="#728ec9"></path><path d="M0 74L21.5 74C43 74 86 74 128.8 73.2C171.7 72.3 214.3 70.7 257.2 70.3C300 70 343 71 385.8 71.2C428.7 71.3 471.3 70.7 514.2 70.5C557 70.3 600 70.7 642.8 70.7C685.7 70.7 728.3 70.3 771.2 70.5C814 70.7 857 71.3 878.5 71.7L900 72L900 81L878.5 81C857 81 814 81 771.2 81C728.3 81 685.7 81 642.8 81C600 81 557 81 514.2 81C471.3 81 428.7 81 385.8 81C343 81 300 81 257.2 81C214.3 81 171.7 81 128.8 81C86 81 43 81 21.5 81L0 81Z" fill="#79a7d3"></path></svg>